<svg xmlns="http://www.w3.org/2000/svg" viewBox="0 0 32 32" width="32" height="32">
  <defs>
    <linearGradient id="bookGradient" x1="0%" y1="0%" x2="100%" y2="100%">
      <stop offset="0%" stop-color="#4e8ef7" />
      <stop offset="100%" stop-color="#3a6bc8" />
    </linearGradient>
  </defs>

  <!-- 书本主体 -->
  <path d="M8 5 C6 5 5 6 5 8 L5 24 C5 26 6 27 8 27 L24 27 C26 27 27 26 27 24 L27 8 C27 6 26 5 24 5 L8 5 Z"
        fill="url(#bookGradient)" stroke="#2c5aa8" stroke-width="0.5"/>

  <!-- 书脊 -->
  <rect x="8" y="5" width="2" height="22" rx="0.5" fill="#2c5aa8"/>

  <!-- 书页线条 -->
  <line x1="12" y1="8" x2="22" y2="8" stroke="#ffffff" stroke-width="0.8" opacity="0.8"/>
  <line x1="12" y1="12" x2="22" y2="12" stroke="#ffffff" stroke-width="0.8" opacity="0.6"/>
  <line x1="12" y1="16" x2="22" y2="16" stroke="#ffffff" stroke-width="0.8" opacity="0.7"/>
  <line x1="12" y1="20" x2="22" y2="20" stroke="#ffffff" stroke-width="0.8" opacity="0.5"/>
  <line x1="12" y1="24" x2="22" y2="24" stroke="#ffffff" stroke-width="0.8" opacity="0.6"/>

  <!-- 装饰点 -->
  <circle cx="26" cy="9" r="1" fill="#3dd68c"/>
  <circle cx="26" cy="15" r="0.8" fill="#f0883e"/>
  <circle cx="26" cy="21" r="0.6" fill="#bc8cff"/>
</svg>